# xmcd
#
# Track frame offsets: 
#        187
#        19017
#        36847
#        55645
#
# Disc length: 979 seconds
#
# Revision: 0
# Processed by: cddbd v1.5.2PL0 Copyright (c) Steve Scherf et al.
# Submitted via: ExactAudioCopy v1.3
#
DISCID=2603d104
DTITLE=晴山さおり - アシカがよろしく
DYEAR=1991
DGENRE=Jpop
TTITLE0=アシカがよろしく
TTITLE1=Let's Fly
TTITLE2=アシカがよろしく（カラオケ）
TTITLE3=Let's Fly（カラオケ）
EXTD=
EXTT0=
EXTT1=
EXTT2=
EXTT3=
PLAYORDER=
